<svg xmlns="http://www.w3.org/2000/svg" xmlns:xlink="http://www.w3.org/1999/xlink" id="Layer_1" x="0px" y="0px" viewBox="0 0 264.4 135.4" style="enable-background:new 0 0 264.4 135.4;" xml:space="preserve"><style type="text/css">	.st0{fill:#1D1D1B;}</style><g>	<path class="st0" d="M103.6,27.2v3.5h-5.8v8.5h5.8l0,33.3h8.5l0-33.3h10.1v-8.5H112v-3.5c0-3.8,3.1-6.9,6.9-6.9h3.2v-8.5H119  C110.5,11.8,103.6,18.7,103.6,27.2z"></path>	<rect x="128.5" y="11.8" class="st0" width="8.5" height="60.7"></rect>	<path class="st0" d="M176,50.7c0,6.1-4.9,11-11,11c-6.1,0-11-4.9-11-11V27.3h-8.5v23.4c0,10.8,8.7,19.5,19.5,19.5  c4.3,0,7.8-1.4,10.4-3.2c-1.9,7.1-8.5,12.4-16.2,12.4c-6.3,0-11.1-2.4-14.1-4.2l-1.1-0.7l-5.6,6.7l1.5,0.9  c3.8,2.4,9.9,5.6,19.4,5.6c13.3,0,24.3-10.4,25.2-23.6l0.1-37.1H176V50.7z"></path>	<path class="st0" d="M205.2,16.7h-8.5v10.4h-5.8v8.5h5.8v23.6c0,7.3,5.9,13.2,13.2,13.2h1.6c0.5,0,1.1,0,1.6-0.1l1.4-0.1v-8.6  l-1.7,0.3c-0.5,0.1-0.9,0.1-1.2,0.1h-1.6c-2.6,0-4.7-2.1-4.7-4.7V35.6h9.3v-8.5h-9.3V16.7z"></path>	<path class="st0" d="M258.3,56.7l-1.2,1.3c-2.7,2.9-7.6,6.4-15.3,6c-6.5-0.3-13.9-4.5-15.7-10.9l36.2,0l0.1-1.4  c0.1-0.7,0.1-1.3,0.1-2c0-12.5-10.2-22.7-22.7-22.7s-22.7,10.2-22.7,22.7c0,12.3,10.9,22.7,23.8,22.7c10.2,0,17.2-2.5,22.1-8l0.9-1  L258.3,56.7z M239.9,35.5c6,0,11.2,3.7,13.2,9.1h-26.5C228.8,39.2,234,35.5,239.9,35.5z"></path></g><path class="st0" d="M85.1,49.4c0-24-7.2-31.3-35.3-32.2c-0.1-3.4-0.3-6.8-0.8-9.8C47.9,1.3,45,0,42.9,0c0,0,0,0,0,0 c-3.5,0-5.3,4.4-5.9,6.3c-1.1,3.5-1.1,7.4-1,10.8C7.3,18,0,25.2,0,49.4c0,26,8.4,32.3,42.6,32.3c0,0,0,0,0,0c0.9,0,1.8,0,2.6,0v9.7 c0,1.2,1,2.2,2.2,2.2c1.2,0,2.2-1,2.2-2.2v-9.8C77.9,80.7,85.1,73.5,85.1,49.4z M42.6,77.3C12.1,77.3,4.4,74,4.4,49.4 c0-22.7,6.5-27.3,31.4-27.8c-0.1,1.3-0.2,2.4-0.6,3.2c-1.4,3.4-4.9,7.4-9.7,10.9c-6.3,4.6-11,9-12.7,10.6c-2.4,2.3-3.2,4.9-2.1,6.7 c0.7,1.2,2.4,2.3,6.1,1.1c2.3-0.8,5-1.7,7.7-2.7c3.4-1.2,7-2.4,10.1-3.5v23.4c0,1.2,1,2.2,2.2,2.2c1.2,0,2.2-1,2.2-2.2V44.9 c0-0.7-0.3-1.4-0.9-1.8c-0.6-0.4-1.3-0.5-2-0.3c-3.8,1.2-8.6,2.8-13.2,4.4c-2.7,0.9-5.3,1.9-7.6,2.6c0.1-0.1,0.2-0.2,0.4-0.4 c1.6-1.6,6.1-5.8,12.2-10.2c5.4-3.9,9.5-8.6,11.2-12.8c1-2.5,0.9-5.7,0.9-9.1c0-3.3-0.1-6.8,0.8-9.7c0.6-2,1.5-3.1,1.7-3.2 c0,0,0,0,0,0c0.5,0,1.3,1.2,1.8,3.8c0.5,2.9,0.7,6.4,0.8,9.8c0.1,1.5,0.1,3,0.2,4.5c0.3,4.6,1.2,7.7,5,11.1c2.4,2.1,5.2,4.3,7.8,6.4 c3.5,2.8,7.2,5.7,10.1,8.6c-4.5-1.4-9.3-3.7-13.1-5.7c-2.9-1.5-5.3-1.7-7.2-0.7c-1.7,0.9-2.8,2.8-3.1,5.2c0,0.1,0,0.2,0,0.3v29.4 C44.4,77.3,43.5,77.3,42.6,77.3z M49.6,77.2V48c0.1-0.9,0.4-1.6,0.8-1.7c0.4-0.2,1.5-0.1,3.2,0.7c4.4,2.2,10.1,5,15.4,6.4 c2.7,0.8,4.6,0.3,5.5-1.2c0.7-1.1,0.9-3.1-1.9-5.8c-3.3-3.3-7.4-6.6-11.3-9.7c-2.6-2.1-5.3-4.2-7.6-6.3c-2.5-2.3-3.3-4-3.6-8.1 c0-0.2,0-0.5,0-0.7c24.3,0.6,30.7,5.3,30.7,27.8C80.7,72,74.3,76.6,49.6,77.2z"></path><g>	<path class="st0" d="M0.4,128.8l8.7-22h4.2l8.7,22h-3.7l-2.1-5.3H6.1l-2.1,5.3H0.4z M7.3,120.5h7.8l-3.9-10h-0.1L7.3,120.5z"></path>	<path class="st0" d="M24.2,110.3v-3.5h3.6v3.5H24.2z M27.6,128.8h-3.3v-15.9h3.3V128.8z"></path>	<path class="st0" d="M40.4,115.6c-0.5-0.1-0.9-0.2-1.4-0.2c-1.2,0-2.2,0.4-3,1.1c-0.8,0.7-1.1,1.7-1.1,3.1v9.2h-3.3v-15.9h3.3v2.3  H35c0.3-0.8,0.9-1.4,1.6-1.8c0.7-0.4,1.5-0.7,2.3-0.7c0.6,0,1.1,0.1,1.5,0.2V115.6z"></path>	<path class="st0" d="M47.8,128.8h-3.3v-13.2h-2.2v-2.8h2.2v-1.6c0-1.4,0.4-2.6,1.2-3.4c0.8-0.8,1.9-1.2,3.4-1.2h2.1v2.8h-1.6  c-1.1,0-1.7,0.6-1.7,1.7v1.6h3.3v2.8h-3.3V128.8z"></path>	<path class="st0" d="M62.3,115.6c-0.5-0.1-0.9-0.2-1.4-0.2c-1.2,0-2.2,0.4-3,1.1c-0.8,0.7-1.1,1.7-1.1,3.1v9.2h-3.3v-15.9h3.3v2.3  h0.1c0.3-0.8,0.9-1.4,1.6-1.8c0.7-0.4,1.5-0.7,2.3-0.7c0.6,0,1.1,0.1,1.5,0.2V115.6z"></path>	<path class="st0" d="M71.2,129.3c-2.3,0-4.3-0.8-5.8-2.4c-1.5-1.6-2.3-3.6-2.3-6.1c0-2.4,0.7-4.5,2.2-6c1.5-1.6,3.4-2.4,5.8-2.4  c2.3,0,4.2,0.8,5.7,2.4c1.4,1.6,2.2,3.6,2.2,6.1v1H66.5c0.2,1.4,0.7,2.5,1.5,3.4c0.9,0.9,1.9,1.3,3.2,1.3c2.1,0,3.5-0.9,4.3-2.7  l2.8,1.1c-0.5,1.3-1.4,2.4-2.6,3.2C74.5,128.9,73,129.3,71.2,129.3z M66.6,119.3h8.7c-0.2-1.3-0.7-2.3-1.4-3  c-0.7-0.7-1.6-1.1-2.8-1.1c-1.1,0-2.1,0.4-2.9,1.1C67.4,117,66.9,118,66.6,119.3z"></path>	<path class="st0" d="M82,110.3v-3.5h3.6v3.5H82z M85.4,128.8h-3.3v-15.9h3.3V128.8z"></path>	<path class="st0" d="M104.4,128.4c0,2.2-0.8,3.9-2.3,5.1c-1.5,1.3-3.4,1.9-5.7,1.9c-2,0-3.7-0.5-5.1-1.4c-1.4-1-2.3-2.3-2.7-3.9  l3.2-0.4c0.6,1.9,2.1,2.9,4.6,2.9c1.4,0,2.5-0.4,3.4-1.1c0.9-0.8,1.3-1.8,1.3-3V126H101c-1.1,1.8-2.9,2.7-5.4,2.7  c-2.2,0-3.9-0.8-5.2-2.3c-1.3-1.5-1.9-3.5-1.9-5.9c0-2.4,0.7-4.4,2-5.9c1.3-1.5,3-2.3,5.1-2.3c2.4,0,4.2,0.9,5.3,2.6h0.1v-2.1h3.3  V128.4z M93.2,124.3c0.8,0.9,1.9,1.4,3.3,1.4c1.3,0,2.4-0.4,3.3-1.3c0.8-0.9,1.3-2,1.3-3.3V120c0-1.3-0.4-2.4-1.3-3.3  c-0.9-0.9-2-1.3-3.3-1.3c-1.4,0-2.5,0.5-3.3,1.4c-0.8,1-1.2,2.2-1.2,3.7C91.9,122.1,92.3,123.3,93.2,124.3z"></path>	<path class="st0" d="M119.2,119c0-1.2-0.4-2.2-1.1-2.8c-0.7-0.6-1.6-1-2.7-1c-1.1,0-2,0.3-2.7,1c-0.7,0.6-1.1,1.6-1.1,2.8v9.8h-3.3  v-22h3.3v7.8h0.1c0.6-0.8,1.2-1.3,2-1.7c0.8-0.3,1.8-0.5,3-0.5c1.6,0,2.9,0.5,4.1,1.5c1.1,1,1.7,2.6,1.7,4.7v10.1h-3.3V119z"></path>	<path class="st0" d="M124.3,115.6v-2.8h2.2v-4.6h3.3v4.6h3.6v2.8h-3.6v8.9c0,1.1,0.5,1.6,1.6,1.6h1.9v2.7h-2.6  c-1.4,0-2.4-0.4-3.2-1.1c-0.7-0.7-1.1-1.8-1.1-3.2v-8.9H124.3z"></path>	<path class="st0" d="M156.7,128.8l-11-16.7h-0.1v16.7H142v-22h4l11,16.7h0.1v-16.7h3.6v22H156.7z"></path>	<path class="st0" d="M172.1,129.3c-2.3,0-4.3-0.8-5.8-2.4c-1.5-1.6-2.3-3.6-2.3-6.1c0-2.4,0.7-4.5,2.2-6c1.5-1.6,3.4-2.4,5.8-2.4  c2.3,0,4.2,0.8,5.7,2.4c1.4,1.6,2.2,3.6,2.2,6.1v1h-12.4c0.2,1.4,0.7,2.5,1.5,3.4c0.9,0.9,1.9,1.3,3.2,1.3c2.1,0,3.5-0.9,4.3-2.7  l2.8,1.1c-0.5,1.3-1.4,2.4-2.6,3.2C175.4,128.9,173.9,129.3,172.1,129.3z M167.5,119.3h8.7c-0.2-1.3-0.7-2.3-1.4-3  c-0.7-0.7-1.6-1.1-2.8-1.1c-1.1,0-2.1,0.4-2.9,1.1C168.3,117,167.7,118,167.5,119.3z"></path>	<path class="st0" d="M180.9,115.6v-2.8h2.2v-4.6h3.3v4.6h3.6v2.8h-3.6v8.9c0,1.1,0.5,1.6,1.6,1.6h1.9v2.7h-2.6  c-1.4,0-2.4-0.4-3.2-1.1c-0.7-0.7-1.1-1.8-1.1-3.2v-8.9H180.9z"></path>	<path class="st0" d="M200.9,128.8h-3.4l-5.7-15.9h3.6l3.9,11.8h0.1l3.9-11.8h3.2l3.9,11.8h0.1l3.9-11.8h3.5l-5.6,15.9h-3.5  l-3.8-11.1h-0.1L200.9,128.8z"></path>	<path class="st0" d="M226.9,129.3c-2.3,0-4.2-0.8-5.8-2.3c-1.6-1.6-2.3-3.6-2.3-6.1c0-2.4,0.8-4.5,2.3-6c1.5-1.6,3.5-2.4,5.8-2.4  c2.3,0,4.2,0.8,5.8,2.3c1.6,1.6,2.3,3.6,2.3,6.1c0,2.5-0.8,4.5-2.3,6.1C231.2,128.5,229.2,129.3,226.9,129.3z M226.9,126.3  c1.4,0,2.5-0.5,3.4-1.5c0.9-1,1.3-2.3,1.3-4c0-1.6-0.4-2.9-1.3-3.9c-0.8-1-2-1.5-3.4-1.5c-1.4,0-2.5,0.5-3.4,1.5  c-0.9,1-1.3,2.3-1.3,4c0,1.6,0.4,3,1.3,4C224.3,125.8,225.4,126.3,226.9,126.3z"></path>	<path class="st0" d="M246.9,115.6c-0.5-0.1-0.9-0.2-1.4-0.2c-1.2,0-2.2,0.4-3,1.1c-0.8,0.7-1.1,1.7-1.1,3.1v9.2h-3.3v-15.9h3.3v2.3  h0.1c0.3-0.8,0.9-1.4,1.6-1.8c0.7-0.4,1.5-0.7,2.3-0.7c0.6,0,1.1,0.1,1.5,0.2V115.6z"></path>	<path class="st0" d="M252.5,128.8h-3.3v-22h3.3v12.5l6.6-6.4h4.4l-6.5,6.3l7.3,9.6h-4.1l-5.6-7.3l-2.2,2.1V128.8z"></path></g></svg>